<?xml version="1.0" encoding="iso-8859-1"?>
<!-- Generator: Adobe Illustrator 22.0.1, SVG Export Plug-In . SVG Version: 6.00 Build 0)  -->
<svg version="1.1" id="&#x56FE;&#x5C42;_1" xmlns="http://www.w3.org/2000/svg" xmlns:xlink="http://www.w3.org/1999/xlink" x="0px"
	 y="0px" viewBox="0 0 600 472" style="enable-background:new 0 0 600 472;" xml:space="preserve">
<g>
	<g>
		<path style="fill:#DDE1DF;" d="M328.192,323.053l-60.151,8.207l-46.917-8.207c5.26,80.676-70.061,117.593-70.061,117.593H274.66
			h123.597C398.256,440.646,322.938,403.729,328.192,323.053z"/>
		<path style="fill:#AFCDCA;" d="M268.041,331.259l-46.917-8.207c1.451,22.265-3.25,41.178-10.796,56.923l139.158,17.747
			c-13.168-18.543-23.337-43.278-21.294-74.67L268.041,331.259z"/>
		<path style="fill:#FF7B19;" d="M538.486,458.099c0,7.274-5.899,13.173-13.17,13.173H26.321c-7.272,0-13.169-5.899-13.169-13.173
			l0,0c0-7.272,5.897-13.17,13.169-13.17h498.995C532.588,444.929,538.486,450.828,538.486,458.099L538.486,458.099z"/>
		<path style="fill:#FFFFFF;" d="M410.939,444.926c0,7.277-5.901,13.175-13.17,13.175H155.193c-7.272,0-13.169-5.899-13.169-13.175
			l0,0c0-7.269,5.898-13.168,13.169-13.168h242.576C405.038,431.759,410.939,437.657,410.939,444.926L410.939,444.926z"/>
	</g>
	<path style="fill:#FFFFFF;" d="M566.153,371.395c-2.824,22.185-23.102,37.866-45.28,35.042L35.611,344.543
		c-22.182-2.827-37.867-23.1-35.039-45.282L34.087,36.477C36.917,14.298,57.19-1.39,79.369,1.441l485.262,61.89
		c22.18,2.827,37.869,23.103,35.039,45.282L566.153,371.395z"/>
	<path style="fill:#003B65;" d="M564.631,63.331L79.369,1.441C57.19-1.39,36.917,14.298,34.087,36.477L0.572,299.26
		c-0.072,0.565-0.082,1.128-0.13,1.694l565.413,72.115c0.095-0.56,0.225-1.109,0.299-1.674l33.517-262.781
		C602.5,86.433,586.811,66.158,564.631,63.331z"/>
	
		<rect x="175.925" y="-71.381" transform="matrix(0.1265 -0.992 0.992 0.1265 72.2932 467.4328)" style="fill:#00223C;" width="251.269" height="528.097"/>
	<g>
		<g>
			<defs>
				
					<rect id="SVGID_1_" x="175.925" y="-71.381" transform="matrix(0.1265 -0.992 0.992 0.1265 72.2932 467.4328)" width="251.269" height="528.097"/>
			</defs>
			<clipPath id="SVGID_2_">
				<use xlink:href="#SVGID_1_"  style="overflow:visible;"/>
			</clipPath>
			<path style="clip-path:url(#SVGID_2_);fill:#002F3F;" d="M680.378,346.618l-16.124-23.55l-21.477,18.773l-16.117-23.545
				l-21.482,18.77l-16.105-23.546L567.6,332.293l-16.105-23.546L530.02,327.52l-16.11-23.543l-21.477,18.77l-16.102-23.543
				l-21.48,18.77l-16.107-23.543l-21.472,18.773l-16.1-23.543l-21.475,18.77l-16.095-23.54l-21.472,18.77l-16.095-23.541
				l-21.47,18.77l-16.093-23.538L267,294.122l-16.093-23.543l-21.474,18.773l-16.102-23.543l-21.467,18.773l-16.104-23.543
				l-21.471,18.773l-16.101-23.545l-21.475,18.773l-16.101-23.541l-21.469,18.773l-16.096-23.546l-21.473,18.77l-16.098-23.538
				L4.002,260.731l-16.095-23.545l-21.47,18.77l-16.099-23.538l-21.471,18.77l-16.096-23.541l-21.466,18.77l-16.101-23.541
				l-21.467,18.77l-16.094-23.541l-21.468,18.77l-16.1-23.538l-21.467,18.768l-12.702-18.584l-8.805,6.019l19.484,28.504
				l21.466-18.775l16.101,23.543l21.469-18.773l16.091,23.543l21.469-18.775l16.1,23.543l21.469-18.773l16.095,23.545l21.471-18.773
				l16.097,23.54l21.47-18.773L1.98,276.662l21.471-18.77l16.097,23.541l21.472-18.775l16.098,23.545l21.469-18.775l16.102,23.543
				l21.474-18.773l16.1,23.545l21.474-18.773l16.102,23.543l21.469-18.775l16.101,23.545l21.474-18.77l16.091,23.541l21.475-18.77
				l16.085,23.54l21.475-18.77l16.097,23.543l21.472-18.775l16.093,23.541l21.477-18.77l16.1,23.543l21.472-18.773l16.105,23.543
				l21.477-18.773l16.105,23.545l21.48-18.77l16.11,23.543l21.472-18.773l16.107,23.545l21.472-18.773l16.105,23.543l21.48-18.775
				l16.117,23.545l21.484-18.77l16.12,23.545l26.01-22.713l-7.012-8.033L680.378,346.618z M684.718,312.44l-16.125-23.55
				l-21.477,18.773l-16.117-23.548l-21.482,18.77l-16.105-23.541l-21.47,18.77l-16.107-23.543l-21.475,18.77l-16.112-23.54
				l-21.477,18.77l-16.102-23.543l-21.477,18.77l-16.107-23.543l-21.472,18.773l-16.098-23.545l-21.477,18.773l-16.095-23.545
				l-21.472,18.77l-16.095-23.538l-21.47,18.77l-16.093-23.541l-21.472,18.77l-16.091-23.538l-21.475,18.773l-16.101-23.545
				l-21.469,18.773l-16.104-23.543l-21.472,18.773l-16.101-23.543l-21.472,18.773l-16.102-23.543l-21.468,18.773l-16.097-23.543
				l-21.474,18.77l-16.097-23.54L8.342,226.553L-7.753,203.01l-21.47,18.77l-16.099-23.543l-21.471,18.773l-16.095-23.541
				l-21.467,18.77l-16.1-23.543l-21.47,18.773l-16.093-23.54l-21.466,18.773l-16.101-23.543l-21.466,18.768l-12.702-18.582
				l-8.806,6.021l19.484,28.499l21.467-18.773l16.1,23.543l21.467-18.773l16.093,23.541l21.469-18.773l16.101,23.543l21.466-18.77
				l16.097,23.538l21.47-18.77l16.099,23.543l21.469-18.77l16.096,23.538l21.474-18.77l16.096,23.541l21.473-18.77l16.096,23.542
				l21.47-18.775l16.101,23.543l21.474-18.77l16.1,23.543l21.472-18.773l16.102,23.543l21.47-18.773l16.102,23.545l21.472-18.77
				l16.093,23.538l21.472-18.77l16.087,23.541l21.475-18.77l16.098,23.538l21.472-18.77l16.095,23.543l21.475-18.773l16.1,23.543
				l21.472-18.773l16.107,23.543l21.475-18.77l16.105,23.543l21.477-18.773l16.11,23.545l21.477-18.773l16.105,23.545l21.472-18.773
				l16.105,23.543l21.482-18.775l16.115,23.548l21.485-18.773l16.12,23.543l26.01-22.713l-7.012-8.033L684.718,312.44z
				 M689.057,278.258l-16.122-23.541l-21.48,18.765l-16.117-23.541l-21.482,18.765l-16.105-23.543l-21.47,18.77l-16.107-23.538
				l-21.477,18.768l-16.11-23.543l-21.475,18.77l-16.105-23.541l-21.477,18.77l-16.107-23.543l-21.47,18.77l-16.1-23.543
				l-21.477,18.773l-16.096-23.541l-21.472,18.77l-16.093-23.541l-21.472,18.773l-16.09-23.543l-21.473,18.77l-16.094-23.538
				l-21.474,18.773l-16.101-23.545l-21.47,18.773l-16.101-23.543l-21.474,18.775l-16.1-23.545l-21.474,18.773l-16.101-23.545
				l-21.47,18.773l-16.098-23.54l-21.472,18.77l-16.098-23.543l-21.471,18.773l-16.096-23.541l-21.47,18.77l-16.099-23.541
				l-21.471,18.77l-16.095-23.541l-21.467,18.77l-16.101-23.54l-21.469,18.77l-16.091-23.538l-21.468,18.77l-16.101-23.543
				l-21.467,18.773l-12.7-18.584l-8.805,6.019l19.482,28.499l21.468-18.775l16.101,23.545l21.467-18.773l16.093,23.54l21.468-18.773
				l16.101,23.541l21.466-18.77l16.096,23.543l21.472-18.775l16.097,23.545l21.47-18.773l16.095,23.538l21.474-18.77l16.096,23.545
				l21.474-18.773l16.096,23.538l21.469-18.77l16.104,23.543l21.472-18.77l16.101,23.54l21.471-18.77l16.104,23.541l21.469-18.77
				l16.102,23.541l21.473-18.77l16.092,23.543l21.473-18.773l16.085,23.543l21.475-18.775l16.095,23.545l21.475-18.773
				l16.095,23.541l21.477-18.77l16.098,23.541l21.472-18.77l16.107,23.543l21.477-18.77l16.102,23.541l21.477-18.77l16.11,23.543
				l21.475-18.77l16.107,23.541l21.472-18.77l16.105,23.543l21.482-18.768l16.117,23.541l21.482-18.768l16.12,23.538l26.01-22.711
				l-7.015-8.033L689.057,278.258z M671.699,414.973l-16.124-23.548l-21.48,18.773l-16.117-23.548l-21.48,18.77l-16.105-23.545
				l-21.472,18.773l-16.107-23.543l-21.475,18.773l-16.107-23.546l-21.477,18.773l-16.105-23.543l-21.48,18.773l-16.102-23.546
				l-21.475,18.773l-16.1-23.546l-21.477,18.775l-16.093-23.548l-21.472,18.773l-16.095-23.541l-21.47,18.773l-16.091-23.543
				l-21.475,18.773l-16.091-23.541l-21.474,18.775l-16.101-23.548l-21.47,18.775l-16.104-23.548l-21.471,18.775l-16.101-23.543
				l-21.472,18.775L91.934,319.85l-21.469,18.775l-16.097-23.543l-21.472,18.773l-16.098-23.546l-21.474,18.775l-16.094-23.543
				l-21.471,18.773l-16.098-23.545l-21.471,18.773l-16.095-23.54l-21.469,18.773l-16.1-23.545l-21.469,18.775l-16.093-23.543
				l-21.467,18.775l-16.101-23.545l-21.466,18.77l-12.702-18.582l-8.805,6.021l19.483,28.499l21.469-18.773l16.1,23.541
				l21.468-18.773l16.091,23.543l21.469-18.773l16.102,23.543l21.466-18.773l16.096,23.541l21.47-18.77l16.099,23.543l21.47-18.773
				L-6.7,345.017l21.471-18.77l16.098,23.541l21.475-18.773l16.096,23.543l21.469-18.773l16.101,23.543l21.474-18.77l16.1,23.541
				l21.474-18.773l16.104,23.545l21.467-18.773l16.102,23.541l21.472-18.768l16.094,23.541l21.472-18.77l16.084,23.538l21.48-18.77
				l16.095,23.541l21.47-18.77l16.095,23.541l21.477-18.773l16.1,23.545l21.47-18.773l16.107,23.543l21.477-18.77l16.107,23.543
				l21.475-18.773l16.11,23.545l21.475-18.773l16.107,23.543l21.472-18.773l16.102,23.545l21.482-18.775l16.117,23.546
				l21.484-18.773l16.117,23.546l26.013-22.716l-7.015-8.03L671.699,414.973z M-167.231-44.15l16.101,23.542l21.466-18.773
				l16.093,23.542l21.467-18.771l16.102,23.541l21.466-18.772L-38.44-6.299l21.471-18.772L-0.87-1.528l21.471-18.773L36.696,3.241
				l21.472-18.77L74.265,8.013L95.74-10.76l16.096,23.542l21.469-18.773l16.102,23.543L170.88-1.22l16.101,23.542l21.472-18.771
				l16.104,23.543l21.467-18.773l16.102,23.543l21.474-18.77l16.093,23.54l21.472-18.77l16.085,23.539l21.477-18.77l16.095,23.542
				l21.472-18.773l16.095,23.542l21.477-18.771l16.097,23.542l21.472-18.771l16.107,23.542l21.477-18.769l16.105,23.542
				l21.477-18.77l16.11,23.541l21.475-18.768l16.105,23.541l21.472-18.77l16.105,23.543l21.482-18.773l16.117,23.546l21.482-18.773
				l16.12,23.546l26.01-22.713l-7.012-8.033l-16.976,14.825l-16.122-23.55l-21.48,18.773l-16.117-23.546l-21.482,18.77
				l-16.105-23.544l-21.47,18.771l-16.107-23.543l-21.475,18.773l-16.11-23.544l-21.475,18.772l-16.105-23.544l-21.48,18.772
				L473.46,21.013l-21.472,18.77L435.89,16.241l-21.477,18.77l-16.095-23.542l-21.472,18.772L360.752,6.699l-21.47,18.771
				L323.19,1.929l-21.475,18.773L285.623-2.841L264.15,15.932L248.049-7.61l-21.47,18.772l-16.102-23.543L189.004,6.391
				l-16.1-23.543L151.43,1.619l-16.102-23.542L113.859-3.151L97.762-26.692L76.289-7.922L60.192-31.463L38.719-12.691L22.623-36.234
				L1.154-17.463l-16.099-23.541l-21.471,18.77l-16.095-23.541L-73.98-27.004l-16.1-23.542l-21.469,18.771l-16.091-23.541
				l-21.469,18.772l-16.1-23.543l-21.468,18.772l-12.701-18.583l-8.804,6.019l19.481,28.501L-167.231-44.15z M676.039,380.793
				l-16.125-23.545l-21.48,18.768l-16.114-23.541l-21.482,18.765l-16.105-23.543l-21.472,18.77l-16.105-23.541l-21.475,18.77
				l-16.11-23.543l-21.477,18.77l-16.105-23.543l-21.475,18.773l-16.11-23.543l-21.472,18.77l-16.1-23.546l-21.477,18.773
				l-16.093-23.541l-21.472,18.773l-16.095-23.545l-21.47,18.775l-16.093-23.543l-21.472,18.773l-16.093-23.543l-21.474,18.773
				l-16.101-23.543l-21.47,18.773l-16.102-23.543l-21.472,18.773l-16.1-23.543l-21.473,18.773l-16.101-23.545l-21.47,18.773
				l-16.098-23.541l-21.472,18.773l-16.097-23.546l-21.472,18.773l-16.096-23.543L-37.9,290.138l-16.099-23.543l-21.471,18.773
				l-16.096-23.545l-21.467,18.773l-16.1-23.541l-21.469,18.773l-16.091-23.543l-21.469,18.773l-16.1-23.543l-21.468,18.773
				l-12.701-18.582l-8.805,6.018l19.484,28.499l21.467-18.775l16.101,23.543l21.466-18.773l16.093,23.543l21.467-18.773
				l16.102,23.538l21.466-18.77l16.096,23.545l21.471-18.775l16.098,23.543l21.471-18.773l16.095,23.541l21.472-18.77l16.096,23.543
				l21.474-18.773l16.097,23.54l21.469-18.77l16.102,23.541l21.472-18.77l16.102,23.543l21.471-18.77l16.104,23.541l21.467-18.77
				l16.103,23.541l21.473-18.77l16.091,23.543l21.475-18.773l16.085,23.54l21.477-18.773l16.095,23.545l21.47-18.773l16.095,23.538
				l21.477-18.77l16.1,23.543l21.472-18.77l16.105,23.54l21.477-18.77l16.105,23.543l21.48-18.77l16.107,23.543l21.475-18.773
				l16.107,23.543l21.472-18.77l16.105,23.543l21.48-18.77l16.117,23.541l21.485-18.768l16.119,23.541l26.01-22.711l-7.015-8.033
				L676.039,380.793z M710.755,107.372L694.63,83.824l-21.477,18.773l-16.117-23.545l-21.482,18.77l-16.105-23.545L597.977,93.05
				l-16.105-23.543L560.397,88.28l-16.11-23.545L522.81,83.506l-16.102-23.543L485.23,78.736l-16.107-23.545l-21.475,18.77
				L431.55,50.418l-21.477,18.773l-16.095-23.544l-21.472,18.772L356.41,40.876L334.943,59.65L318.85,36.107L297.375,54.88
				l-16.091-23.542L259.81,50.109l-16.101-23.542l-21.47,18.773l-16.104-23.543L184.664,40.57l-16.101-23.544l-21.472,18.773
				l-16.102-23.544L109.52,31.028L93.422,7.484l-21.473,18.77L55.852,2.714L34.378,21.486L18.285-2.057L-3.186,16.715L-19.284-6.826
				l-21.471,18.77L-56.85-11.597L-78.319,7.174l-16.1-23.542l-21.469,18.771l-16.093-23.54l-21.466,18.772l-16.101-23.542
				l-21.467,18.772l-12.702-18.582l-8.805,6.017l19.483,28.502l21.469-18.774l16.1,23.544l21.468-18.774l16.091,23.543l21.47-18.774
				l16.101,23.542l21.466-18.772l16.096,23.543l21.47-18.774L-5.21,32.651l21.47-18.774l16.096,23.542l21.471-18.771l16.097,23.544
				L91.4,23.416l16.096,23.543l21.469-18.773l16.101,23.546l21.475-18.775l16.1,23.543l21.472-18.771l16.102,23.544l21.469-18.774
				l16.102,23.544l21.474-18.771l16.093,23.544l21.472-18.775l16.085,23.543l21.477-18.773l16.095,23.543l21.472-18.773
				l16.095,23.54l21.475-18.773l16.1,23.545l21.472-18.773l16.107,23.543l21.477-18.77l16.105,23.541l21.477-18.77l16.11,23.543
				l21.475-18.77l16.105,23.541l21.472-18.77l16.105,23.543l21.482-18.773l16.115,23.545l21.485-18.773l16.122,23.543l26.008-22.711
				l-7.012-8.033L710.755,107.372z M706.415,141.55l-16.125-23.545l-21.48,18.773l-16.115-23.548L631.213,132l-16.105-23.543
				l-21.472,18.773l-16.105-23.545l-21.475,18.773l-16.11-23.545l-21.477,18.773l-16.105-23.543l-21.475,18.77l-16.107-23.545
				l-21.472,18.77l-16.1-23.541l-21.477,18.77l-16.095-23.543l-21.472,18.771l-16.095-23.54l-21.47,18.773l-16.09-23.543
				l-21.475,18.773l-16.091-23.543l-21.474,18.773l-16.102-23.543l-21.467,18.773l-16.104-23.543l-21.474,18.773l-16.1-23.545
				L142.75,69.974l-16.101-23.543L105.18,65.206L89.084,41.662L67.609,60.433L51.513,36.891L30.04,55.663L13.945,32.121
				L-7.526,50.892L-23.625,27.35l-21.47,18.773L-61.191,22.58l-21.466,18.774l-16.101-23.545l-21.469,18.775L-136.32,13.04
				l-21.467,18.775l-16.1-23.544l-21.469,18.773l-12.7-18.582l-8.805,6.015l19.482,28.503l21.468-18.774l16.101,23.544
				l21.467-18.774l16.091,23.542l21.47-18.773l16.1,23.543l21.468-18.773l16.095,23.543l21.472-18.773l16.098,23.543l21.47-18.773
				l16.096,23.541l21.471-18.77l16.097,23.543L87.06,57.594l16.097,23.543l21.468-18.773l16.102,23.543l21.475-18.773l16.1,23.543
				l21.472-18.773l16.102,23.545l21.47-18.773l16.101,23.543l21.473-18.77l16.091,23.543l21.474-18.773l16.085,23.541l21.477-18.77
				l16.095,23.541l21.472-18.773l16.093,23.541l21.477-18.77l16.1,23.541l21.472-18.773l16.107,23.543l21.477-18.77l16.105,23.541
				l21.477-18.768l16.11,23.543l21.472-18.77l16.107,23.541l21.472-18.77l16.105,23.543l21.48-18.773l16.117,23.548l21.487-18.773
				l16.119,23.543l26.008-22.716l-7.012-8.033L706.415,141.55z M702.076,175.73l-16.122-23.548l-21.482,18.77l-16.114-23.545
				l-21.482,18.768l-16.105-23.543l-21.472,18.773l-16.107-23.546l-21.472,18.773l-16.11-23.543l-21.477,18.773l-16.105-23.545
				l-21.475,18.773l-16.107-23.543l-21.472,18.773l-16.1-23.545l-21.48,18.773l-16.09-23.545l-21.475,18.775l-16.095-23.545
				l-21.47,18.775l-16.09-23.545L288.7,123.236l-16.093-23.541l-21.475,18.775l-16.101-23.545l-21.469,18.773l-16.102-23.54
				l-21.474,18.773l-16.1-23.545l-21.474,18.773l-16.101-23.543l-21.469,18.773L84.743,75.84L63.271,94.61L47.172,71.07
				L25.701,89.843L9.604,66.297L-11.865,85.07l-16.1-23.538l-21.471,18.77L-65.53,56.757L-86.998,75.53l-16.1-23.543l-21.47,18.773
				l-16.091-23.541l-21.467,18.773l-16.1-23.543l-21.467,18.77l-12.702-18.582l-8.805,6.016l19.484,28.502l21.466-18.773
				l16.1,23.543l21.468-18.77l16.093,23.538l21.467-18.77l16.101,23.541l21.466-18.77l16.098,23.54l21.471-18.77l16.097,23.541
				l21.47-18.77l16.095,23.541L45.15,87.001l16.096,23.543L82.72,91.772l16.096,23.543l21.47-18.773l16.102,23.543l21.472-18.773
				l16.101,23.545l21.471-18.773l16.105,23.541l21.469-18.773l16.102,23.546l21.474-18.77l16.091,23.538l21.474-18.77l16.085,23.54
				l21.477-18.77l16.095,23.541l21.47-18.77l16.095,23.541l21.477-18.773l16.1,23.543l21.475-18.773l16.105,23.543l21.477-18.77
				l16.105,23.543l21.477-18.77l16.107,23.54l21.475-18.77l16.107,23.543l21.472-18.77l16.102,23.541l21.485-18.77l16.115,23.545
				l21.487-18.77l16.12,23.54l26.008-22.711l-7.015-8.035L702.076,175.73z M697.739,209.905l-16.124-23.548l-21.48,18.773
				l-16.117-23.546l-21.48,18.77l-16.105-23.546l-21.475,18.773l-16.107-23.546l-21.475,18.775l-16.107-23.546l-21.477,18.773
				l-16.105-23.546l-21.477,18.773l-16.105-23.543l-21.472,18.773l-16.1-23.545l-21.477,18.773l-16.093-23.545l-21.475,18.773
				l-16.095-23.543l-21.47,18.773l-16.09-23.54l-21.475,18.773l-16.091-23.543l-21.475,18.775l-16.101-23.543l-21.469,18.773
				l-16.104-23.545l-21.471,18.773l-16.101-23.543l-21.474,18.775L117.97,114.79l-21.467,18.773L80.405,110.02l-21.474,18.77
				l-16.096-23.541L21.36,124.02L5.265,100.475l-21.47,18.773l-16.097-23.54l-21.471,18.77L-69.87,90.934l-21.467,18.773
				l-16.1-23.541l-21.469,18.773l-16.093-23.546l-21.467,18.775l-16.101-23.543l-21.466,18.77l-12.703-18.582l-8.804,6.019
				l19.482,28.499l21.468-18.77l16.101,23.541l21.467-18.773l16.091,23.543l21.469-18.773l16.102,23.538l21.466-18.768
				l16.096,23.541l21.47-18.77l16.099,23.541l21.469-18.77l16.098,23.538l21.471-18.768l16.097,23.538l21.474-18.77l16.097,23.541
				l21.469-18.77l16.101,23.541l21.473-18.77l16.101,23.541l21.472-18.77l16.102,23.541l21.469-18.77l16.102,23.543l21.472-18.768
				l16.092,23.541l21.474-18.773l16.085,23.541l21.477-18.77l16.095,23.541l21.47-18.77l16.098,23.538l21.477-18.77l16.1,23.543
				l21.47-18.77l16.107,23.54l21.477-18.77l16.105,23.543l21.475-18.77l16.11,23.541l21.475-18.77l16.107,23.543l21.472-18.77
				l16.102,23.541l21.485-18.773l16.117,23.548l21.485-18.773l16.117,23.545l26.01-22.713l-7.015-8.033L697.739,209.905z
				 M693.399,244.083l-16.125-23.548l-21.48,18.77l-16.117-23.543l-21.482,18.77l-16.102-23.543l-21.472,18.77l-16.11-23.541
				l-21.475,18.77l-16.107-23.543l-21.477,18.768l-16.105-23.538l-21.477,18.768L451.763,191.9l-21.47,18.77l-16.1-23.543
				l-21.477,18.77l-16.095-23.541l-21.47,18.77l-16.098-23.541l-21.47,18.77l-16.093-23.538l-21.472,18.77l-16.093-23.543
				l-21.472,18.773l-16.103-23.541l-21.469,18.773l-16.104-23.545l-21.472,18.773l-16.1-23.543l-21.473,18.773l-16.101-23.543
				l-21.47,18.773l-16.096-23.543l-21.474,18.77l-16.097-23.539l-21.473,18.773L0.925,134.655l-21.47,18.77l-16.099-23.541
				l-21.47,18.77l-16.097-23.54l-21.466,18.773l-16.101-23.543l-21.467,18.77l-16.093-23.541l-21.469,18.77l-16.1-23.538
				l-21.468,18.768l-12.701-18.582l-8.804,6.016l19.482,28.504l21.467-18.773l16.101,23.538l21.468-18.77l16.091,23.54l21.469-18.77
				l16.101,23.538l21.467-18.77l16.095,23.543l21.471-18.77l16.099,23.538l21.47-18.77l16.096,23.54l21.471-18.768l16.098,23.538
				l21.473-18.773l16.098,23.543l21.467-18.77l16.102,23.541l21.475-18.77l16.1,23.541l21.472-18.77l16.102,23.543l21.469-18.77
				l16.102,23.538l21.472-18.768l16.093,23.543l21.474-18.77l16.085,23.536l21.477-18.768l16.093,23.541l21.472-18.77l16.097,23.536
				l21.477-18.768l16.098,23.541l21.472-18.77l16.107,23.541l21.477-18.77l16.102,23.543l21.477-18.768l16.11,23.543l21.475-18.77
				l16.107,23.541l21.472-18.77l16.105,23.543l21.482-18.773l16.117,23.543l21.485-18.77l16.117,23.546l26.008-22.716l-7.012-8.033
				L693.399,244.083z"/>
		</g>
	</g>
	<g>
		<g>
			<path style="fill:#FF2B33;" d="M131.532,194.696c-5.003,3.869-12.199,2.952-16.069-2.054l0,0c-3.872-5-2.953-12.196,2.047-16.068
				l92.16-71.31c5.003-3.872,12.199-2.954,16.069,2.054l0,0c3.872,5,2.954,12.196-2.047,16.071L131.532,194.696z"/>
			<path style="fill:#FF2B33;" d="M215.316,189.049c3.871,5.005,2.953,12.201-2.052,16.073l0,0
				c-5.002,3.87-12.197,2.949-16.07-2.051l-71.309-92.16c-3.87-5-2.952-12.196,2.049-16.068l0,0
				c5.006-3.874,12.201-2.954,16.072,2.049L215.316,189.049z"/>
		</g>
		<g>
			<path style="fill:#FF2B33;" d="M399.969,228.935c-5,3.869-12.196,2.952-16.068-2.053l0,0c-3.872-5.001-2.954-12.196,2.046-16.068
				l92.16-71.307c5.008-3.874,12.201-2.957,16.071,2.046l0,0c3.874,5.008,2.956,12.201-2.051,16.073L399.969,228.935z"/>
			<path style="fill:#FF2B33;" d="M483.754,223.288c3.872,5.003,2.957,12.199-2.051,16.071l0,0
				c-5.003,3.869-12.196,2.949-16.068-2.049l-71.312-92.16c-3.87-5.005-2.949-12.201,2.051-16.071l0,0
				c5.005-3.869,12.201-2.957,16.071,2.049L483.754,223.288z"/>
		</g>
	</g>
	<g>
		<path style="fill:#FF2B33;" d="M340.494,310.558c-7.063-0.901-12.054-7.35-11.154-14.416
			c2.834-22.231-12.945-42.631-35.184-45.466c-22.234-2.834-42.629,12.945-45.464,35.181c-0.901,7.061-7.355,12.057-14.416,11.154
			c-7.059-0.901-12.053-7.352-11.152-14.414c4.633-36.334,37.963-62.121,74.296-57.49c36.334,4.638,62.121,37.964,57.488,74.295
			C354.007,306.466,347.553,311.459,340.494,310.558z"/>
	</g>
	<path style="fill:#00223C;" d="M344.657,54.831c-0.36,2.79-2.905,4.758-5.693,4.406l-37.455-4.778
		c-2.788-0.357-4.758-2.903-4.406-5.693l0,0c0.357-2.788,2.905-4.758,5.693-4.404l37.453,4.779
		C343.039,49.495,345.01,52.04,344.657,54.831L344.657,54.831z"/>
	<path style="fill:#00101A;" d="M299.815,49.054c-0.193,1.522,0.879,2.908,2.399,3.101s2.908-0.879,3.104-2.401
		c0.193-1.518-0.881-2.905-2.401-3.1C301.397,46.46,300.006,47.535,299.815,49.054z"/>
	<g style="opacity:0.1;">
		<polygon style="fill:#FFFFFF;" points="23.546,119.135 6.139,255.616 298.509,29.388 162.027,11.981 		"/>
		<path style="fill:#FFFFFF;" d="M576.729,66.858c-3.735-1.752-7.788-2.976-12.098-3.527L370.442,38.563L4.26,321.905
			c5.753,11.939,17.221,20.836,31.35,22.638L192.066,364.5L576.729,66.858z"/>
		<polygon style="fill:#FFFFFF;" points="590.947,177 594.271,150.936 300.413,378.316 326.477,381.64 		"/>
	</g>
	<path style="fill:none;stroke:#FFFFFF;stroke-miterlimit:10;" d="M405.234-106.375"/>
</g>
</svg>
