<?xml version="1.0" encoding="iso-8859-1"?>
<!-- Generator: Adobe Illustrator 22.0.1, SVG Export Plug-In . SVG Version: 6.00 Build 0)  -->
<svg version="1.1" id="&#x56FE;&#x5C42;_1" xmlns="http://www.w3.org/2000/svg" xmlns:xlink="http://www.w3.org/1999/xlink" x="0px"
	 y="0px" viewBox="0 0 100 100" style="enable-background:new 0 0 100 100;" xml:space="preserve">
<g>
	<path d="M86.852,20.684c-3.94-5.093-10.622-6.814-16.358-4.695c-0.29-0.74-0.688-1.453-1.198-2.113
		c-2.888-3.732-8.254-4.417-11.986-1.529c-3.731,2.887-4.417,8.253-1.528,11.985c0.282,0.364,0.593,0.691,0.918,0.997
		c-0.174,0.099-0.349,0.194-0.512,0.32c-1.857,1.436-2.197,4.106-0.761,5.962c0.357,0.461,0.79,0.828,1.268,1.098l-22.64,26.139
		l7.555-3.494L29.459,68.957l36.894-19.569c0.066,0.133,0.145,0.261,0.239,0.383c0.772,0.998,2.207,1.181,3.204,0.409
		c0.249-0.193,0.447-0.426,0.592-0.684c0.15,0.344,0.329,0.68,0.57,0.99c1.572,2.03,4.487,2.402,6.516,0.833
		c0.105-0.081,0.186-0.18,0.282-0.268c2.776,1.225,6.116,0.93,8.683-1.057c3.734-2.888,4.416-8.254,1.529-11.986
		c-0.158-0.204-0.324-0.397-0.497-0.583C90.777,32.428,90.723,25.685,86.852,20.684z"/>
	<path d="M77.702,11.903c0.173-0.134,0.337-0.276,0.492-0.424c0.007,0.009,0.011,0.019,0.018,0.028
		c1.055,1.363,3.013,1.613,4.376,0.559c1.363-1.055,1.614-3.013,0.558-4.376c-0.74-0.956-1.924-1.351-3.037-1.144
		c-0.08-1.194-0.503-2.377-1.29-3.395c-2.108-2.725-6.027-3.225-8.752-1.116c-2.726,2.108-3.224,6.026-1.117,8.751
		C71.06,13.512,74.977,14.012,77.702,11.903z"/>
	<path d="M89.011,16.324c0.816-0.631,0.965-1.802,0.333-2.619c-0.629-0.815-1.803-0.964-2.616-0.333
		c-0.817,0.631-0.967,1.802-0.336,2.618C87.023,16.807,88.196,16.956,89.011,16.324z"/>
	<path d="M96.459,39.006c-0.188-0.244-0.445-0.4-0.721-0.474c0.681-1.082,0.663-2.513-0.166-3.583
		c-1.059-1.369-3.027-1.62-4.396-0.561c-1.369,1.059-1.621,3.029-0.561,4.397c0.828,1.07,2.209,1.446,3.428,1.059
		c0.002,0.286,0.089,0.573,0.278,0.817c0.456,0.59,1.306,0.699,1.896,0.242C96.807,40.446,96.914,39.596,96.459,39.006z"/>
	<path d="M26.88,55.855c-6.237,4.825-15.234,3.677-20.062-2.559c-1.843-2.382-2.649-5.339-2.269-8.328
		c0.382-2.987,1.904-5.647,4.286-7.49c3.862-2.989,9.433-2.277,12.422,1.584c1.131,1.462,1.625,3.276,1.392,5.109
		c-0.234,1.834-1.168,3.466-2.628,4.597c-2.342,1.811-5.722,1.38-7.534-0.961c-1.393-1.802-1.062-4.401,0.739-5.794
		c1.369-1.058,3.344-0.807,4.405,0.561c0.278,0.362,0.797,0.428,1.159,0.148c0.36-0.279,0.427-0.798,0.148-1.16
		c-0.783-1.012-1.915-1.659-3.185-1.821c-1.269-0.162-2.527,0.18-3.539,0.963c-1.221,0.945-2.004,2.31-2.197,3.842
		c-0.197,1.533,0.217,3.05,1.162,4.272c2.37,3.063,6.79,3.626,9.853,1.257c1.812-1.401,2.969-3.424,3.259-5.695
		c0.288-2.272-0.323-4.519-1.725-6.331c-3.546-4.583-10.159-5.426-14.743-1.88c-2.731,2.114-4.477,5.164-4.914,8.589
		c-0.437,3.426,0.487,6.817,2.601,9.549c2.692,3.478,6.55,5.538,10.601,6.054c4.053,0.517,8.304-0.509,11.781-3.201
		c0.362-0.279,0.428-0.798,0.149-1.159C27.76,55.641,27.241,55.576,26.88,55.855z"/>
	<path d="M58.945,72.464c-2.84,2.197-6.937,1.674-9.134-1.165c-0.84-1.085-1.206-2.432-1.033-3.792
		c0.174-1.36,0.866-2.571,1.951-3.411c1.758-1.36,4.297-1.036,5.656,0.722c0.516,0.666,0.74,1.492,0.634,2.327
		c-0.106,0.835-0.532,1.578-1.197,2.093c-1.067,0.824-2.605,0.628-3.431-0.438c-0.635-0.821-0.484-2.004,0.337-2.64
		c0.622-0.482,1.522-0.367,2.004,0.255c0.127,0.166,0.364,0.196,0.528,0.068c0.166-0.127,0.196-0.362,0.067-0.528
		c-0.357-0.46-0.871-0.756-1.448-0.83c-0.58-0.073-1.152,0.084-1.613,0.439c-0.557,0.431-0.912,1.053-1,1.75
		c-0.09,0.698,0.098,1.389,0.529,1.945c1.079,1.394,3.091,1.652,4.488,0.573c0.823-0.639,1.348-1.559,1.481-2.594
		c0.132-1.034-0.145-2.058-0.783-2.882c-1.616-2.086-4.627-2.471-6.713-0.858c-1.245,0.964-2.04,2.352-2.24,3.913
		c-0.198,1.56,0.223,3.103,1.186,4.346c1.224,1.584,2.98,2.522,4.827,2.757c1.844,0.235,3.78-0.231,5.363-1.457
		c0.165-0.127,0.194-0.363,0.068-0.528C59.347,72.367,59.111,72.337,58.945,72.464z"/>
	<path d="M55.997,88.014l-9.362-1.194l1.194-9.362c0.094-0.733-0.423-1.401-1.155-1.494c-0.733-0.093-1.401,0.424-1.495,1.156
		l-1.195,9.363l-9.363-1.194c-0.729-0.094-1.4,0.424-1.493,1.156c-0.093,0.732,0.425,1.401,1.156,1.495l9.362,1.194l-1.194,9.361
		c-0.092,0.732,0.425,1.401,1.156,1.495c0.733,0.093,1.401-0.424,1.494-1.157l1.194-9.361l9.363,1.194
		c0.732,0.094,1.401-0.424,1.494-1.156C57.246,88.776,56.73,88.107,55.997,88.014z"/>
	<path d="M67.984,76.693l-3.32,2.569l-2.569-3.321c-0.201-0.26-0.575-0.309-0.834-0.107c-0.26,0.2-0.307,0.574-0.105,0.834
		l2.569,3.321l-3.321,2.57c-0.26,0.2-0.307,0.573-0.106,0.833c0.201,0.26,0.573,0.307,0.833,0.107l3.322-2.571l2.569,3.321
		c0.201,0.26,0.574,0.307,0.834,0.106c0.259-0.201,0.307-0.574,0.106-0.833l-2.57-3.321l3.32-2.57
		c0.26-0.202,0.308-0.574,0.106-0.833C68.618,76.54,68.246,76.492,67.984,76.693z"/>
	<path d="M35.237,46.461l3.32-2.57l2.57,3.321c0.202,0.26,0.574,0.307,0.834,0.106c0.26-0.201,0.307-0.573,0.106-0.834l-2.57-3.321
		l3.32-2.569c0.261-0.201,0.308-0.574,0.107-0.833c-0.2-0.26-0.574-0.308-0.834-0.106l-3.321,2.569l-2.569-3.32
		c-0.201-0.26-0.573-0.308-0.834-0.107c-0.259,0.201-0.308,0.574-0.107,0.834l2.57,3.321l-3.321,2.569
		c-0.26,0.201-0.308,0.575-0.107,0.834C34.604,46.614,34.977,46.661,35.237,46.461z"/>
</g>
</svg>
