<?xml version="1.0" encoding="iso-8859-1"?>
<!-- Generator: Adobe Illustrator 22.0.1, SVG Export Plug-In . SVG Version: 6.00 Build 0)  -->
<svg version="1.1" id="&#x56FE;&#x5C42;_1" xmlns="http://www.w3.org/2000/svg" xmlns:xlink="http://www.w3.org/1999/xlink" x="0px"
	 y="0px" viewBox="0 0 100 100" style="enable-background:new 0 0 100 100;" xml:space="preserve">
<g>
	<path d="M2.332,60.363c-2.624,2.028-3.105,5.804-1.076,8.424c0.758,0.98,1.76,1.66,2.853,2.024
		c-0.462,0.987-0.381,2.187,0.333,3.107c1.014,1.313,2.901,1.553,4.212,0.537c1.312-1.017,1.553-2.9,0.537-4.212
		c-0.013-0.017-0.03-0.029-0.044-0.046c0.179-0.111,0.365-0.203,0.535-0.335c2.623-2.028,3.105-5.8,1.074-8.427
		C8.726,58.814,4.954,58.333,2.332,60.363z"/>
	<path d="M46.483,72.131c0.276-0.073,0.542-0.201,0.781-0.386c0.96-0.742,1.136-2.122,0.393-3.085
		c-0.09-0.117-0.191-0.221-0.298-0.314l27.152-29.653l-15.615,8.036l5.083-6.197L34.147,55.314c-0.137-0.51-0.373-1.001-0.717-1.445
		c-1.382-1.788-3.953-2.116-5.74-0.732c-0.157,0.121-0.287,0.262-0.421,0.4c-0.206-0.377-0.436-0.746-0.708-1.097
		c-2.78-3.594-7.947-4.252-11.539-1.471c-3.593,2.778-4.252,7.945-1.471,11.537c0.492,0.636,1.06,1.178,1.679,1.629
		c-3.36,4.832-3.371,11.474,0.423,16.377c3.725,4.816,9.997,6.495,15.451,4.624c0.131,0.205,0.272,0.405,0.423,0.602
		c2.78,3.592,7.946,4.252,11.54,1.472c2.472-1.912,3.554-4.954,3.084-7.837c0.105-0.068,0.216-0.12,0.317-0.198
		c1.954-1.511,2.311-4.32,0.799-6.276C47.037,72.602,46.767,72.354,46.483,72.131z"/>
	<path d="M8.869,78.628c-0.784,0.607-0.929,1.736-0.322,2.521c0.608,0.786,1.737,0.93,2.522,0.322
		c0.785-0.608,0.93-1.738,0.322-2.523C10.783,78.164,9.655,78.021,8.869,78.628z"/>
	<path d="M31.761,91.858c0.665-1.045,0.654-2.429-0.147-3.464c-1.02-1.318-2.915-1.562-4.234-0.539
		c-1.318,1.018-1.559,2.915-0.54,4.234c0.801,1.034,2.138,1.393,3.315,1.012c0.001,0.277,0.068,0.557,0.251,0.793
		c0.44,0.567,1.259,0.67,1.826,0.233c0.569-0.441,0.673-1.259,0.233-1.826C32.283,92.065,32.029,91.929,31.761,91.858z"/>
	<path d="M52.856,27.935c2.187,0.279,4.352-0.311,6.094-1.659c2.949-2.284,3.493-6.538,1.211-9.488
		c-0.911-1.176-2.223-1.927-3.7-2.115c-1.475-0.188-2.936,0.209-4.112,1.12c-0.975,0.752-1.598,1.845-1.753,3.064
		c-0.156,1.223,0.172,2.436,0.928,3.407c0.269,0.349,0.769,0.412,1.116,0.143c0.348-0.268,0.412-0.769,0.142-1.116
		c-1.02-1.318-0.777-3.218,0.541-4.24c1.734-1.341,4.236-1.023,5.578,0.712c1.745,2.255,1.329,5.509-0.925,7.253
		c-1.407,1.09-3.154,1.564-4.918,1.34c-1.765-0.225-3.338-1.124-4.426-2.533c-2.876-3.718-2.193-9.081,1.526-11.958
		c2.293-1.775,5.14-2.551,8.016-2.185c2.877,0.368,5.438,1.833,7.213,4.128c4.645,6.003,3.54,14.666-2.464,19.313
		c-0.348,0.268-0.412,0.77-0.142,1.118c0.269,0.346,0.769,0.409,1.117,0.142c3.349-2.593,5.331-6.304,5.829-10.206
		c0.497-3.904-0.49-7.994-3.081-11.344c-2.036-2.63-4.972-4.309-8.27-4.73c-3.298-0.42-6.562,0.467-9.192,2.503
		c-4.413,3.416-5.225,9.782-1.811,14.195C48.722,26.543,50.67,27.656,52.856,27.935z"/>
	<path d="M72.348,57.78c-0.926-1.198-2.263-1.964-3.765-2.156c-1.502-0.19-2.989,0.215-4.186,1.141
		c-2.008,1.555-2.379,4.454-0.824,6.464c0.614,0.792,1.501,1.3,2.498,1.426c0.995,0.13,1.981-0.141,2.775-0.753
		c1.343-1.041,1.59-2.977,0.551-4.32c-0.414-0.536-1.013-0.877-1.686-0.963c-0.672-0.086-1.336,0.094-1.872,0.51
		c-0.443,0.341-0.727,0.838-0.799,1.398c-0.07,0.554,0.079,1.107,0.423,1.55c0.123,0.158,0.35,0.187,0.508,0.064
		c0.16-0.123,0.188-0.35,0.065-0.507c-0.463-0.601-0.353-1.469,0.247-1.934c0.79-0.61,1.929-0.463,2.541,0.324
		c0.793,1.027,0.604,2.509-0.422,3.306c-0.641,0.496-1.437,0.711-2.24,0.608c-0.804-0.101-1.518-0.512-2.016-1.152
		c-1.31-1.693-0.998-4.137,0.695-5.448c1.044-0.809,2.34-1.159,3.65-0.992c1.309,0.168,2.476,0.831,3.284,1.877
		c2.115,2.734,1.612,6.679-1.122,8.795c-0.158,0.124-0.187,0.35-0.065,0.508c0.123,0.159,0.35,0.187,0.509,0.067
		c1.525-1.181,2.428-2.872,2.655-4.648C73.978,61.167,73.528,59.305,72.348,57.78z"/>
	<path d="M98.897,57.939l-9.013-1.15l1.15-9.012c0.09-0.704-0.408-1.349-1.113-1.44c-0.704-0.088-1.348,0.41-1.438,1.114
		l-1.15,9.014l-9.014-1.15c-0.703-0.089-1.348,0.411-1.438,1.115c-0.09,0.702,0.409,1.347,1.113,1.438l9.014,1.149l-1.15,9.013
		c-0.09,0.705,0.408,1.349,1.113,1.438c0.706,0.09,1.348-0.408,1.438-1.113l1.15-9.014l9.013,1.149
		c0.705,0.09,1.349-0.408,1.439-1.112C100.1,58.673,99.602,58.029,98.897,57.939z"/>
	<path d="M79.708,70.817l-3.197,2.474l-2.474-3.197c-0.193-0.251-0.553-0.297-0.802-0.103c-0.251,0.193-0.296,0.551-0.102,0.804
		l2.473,3.196l-3.196,2.473c-0.252,0.194-0.296,0.553-0.103,0.803c0.193,0.249,0.551,0.295,0.802,0.103l3.196-2.473l2.474,3.196
		c0.194,0.25,0.552,0.295,0.803,0.102c0.249-0.194,0.295-0.552,0.102-0.803l-2.474-3.197l3.197-2.474
		c0.248-0.194,0.294-0.554,0.103-0.802C80.317,70.669,79.958,70.623,79.708,70.817z"/>
	<path d="M44.85,44.286l3.197-2.474l2.474,3.197c0.193,0.25,0.553,0.296,0.802,0.104c0.251-0.193,0.297-0.554,0.102-0.804
		l-2.474-3.196l3.198-2.475c0.25-0.193,0.295-0.552,0.102-0.801c-0.193-0.251-0.553-0.297-0.803-0.102l-3.197,2.474l-2.474-3.197
		c-0.193-0.252-0.552-0.298-0.802-0.102c-0.251,0.194-0.295,0.552-0.102,0.801l2.475,3.198l-3.198,2.475
		c-0.251,0.193-0.295,0.552-0.102,0.8C44.241,44.434,44.599,44.479,44.85,44.286z"/>
</g>
</svg>
